{"title":"Skull Fist - Head Of The Pack_flac(image+cue) ","uid":11115077,"size":352735195,"categoryP":"audio","categoryS":"flac","magnet":"?xt=urn:btih:166e118fb192fcd2f2d675b82db7639d34da18f9&amp;dn=Skull+Fist+-+Head+Of+The+Pack_flac%28image%2Bcue%29+&amp;tr=udp%3A%2F%2Ftracker.openbittorrent.com%3A80&amp;tr=udp%3A%2F%2Fopen.demonii.com%3A1337&amp;tr=udp%3A%2F%2Ftracker.coppersurfer.tk%3A6969&amp;tr=udp%3A%2F%2Fexodus.desync.com%3A6969","seeders":0,"leechers":0,"uploader":"mugiwaradio","files":7,"time":1411851514,"description":"Skull Fist - Head Of The Pack Flac(image+cue)\n       \n\n        track list\n\n1.\t&quot;Head Of The Pack&quot;    3:45\n2.\t&quot;Ride The Beast&quot;      3:40\n3.\t&quot;Commanding The Night&quot;3:36\n4.\t&quot;Get Fisted&quot;          4:08\n5.\t&quot;Cold Night&quot;  \t      3:04\n6.\t&quot;Tear Down The Wall&quot;  2:53\n7.\t&quot;Commit To Rock&quot;      4:29\n8.\t&quot;Ride On&quot;  \t      4:43\n9.\t&quot;Like A Fox&quot;  \t      3:55\n10.\t&quot;No False Metal&quot;      4:38\n11.\t&quot;Attack Attack&quot;       3:07 \n\n\n\n\nExact Audio Copy V1.0 beta 2 from 29. April 2011\n\nEAC extraction logfile from 5. September 2011, 21:32\n\nSkull Fist / Head Of The Pack\n\nUsed drive  : ATAPI   DVD A  DH16ABSH   Adapter: 0  ID: 1\n\nRead mode               : Secure\nUtilize accurate stream : Yes\nDefeat audio cache      : Yes\nMake use of C2 pointers : No\n\nRead offset correction                      : 6\nOverread into Lead-In and Lead-Out          : No\nFill up missing offset samples with silence : Yes\nDelete leading and trailing silent blocks   : No\nNull samples used in CRC calculations       : Yes\nUsed interface                              : Installed external ASPI interface\n\nUsed output format : Internal WAV Routines\nSample format      : 44.100 Hz; 16 Bit; Stereo\n\n\nTOC of the extracted CD\n\n     Track |   Start  |  Length  | Start sector | End sector \n    ---------------------------------------------------------\n        1  |  0:00.00 |  3:52.65 |         0    |    17464   \n        2  |  3:52.65 |  3:43.51 |     17465    |    34240   \n        3  |  7:36.41 |  3:39.70 |     34241    |    50735   \n        4  | 11:16.36 |  4:14.20 |     50736    |    69805   \n        5  | 15:30.56 |  3:08.41 |     69806    |    83946   \n        6  | 18:39.22 |  2:58.34 |     83947    |    97330   \n        7  | 21:37.56 |  4:34.19 |     97331    |   117899   \n        8  | 26:12.00 |  4:48.68 |    117900    |   139567   \n        9  | 31:00.68 |  3:59.39 |    139568    |   157531   \n       10  | 35:00.32 |  4:44.72 |    157532    |   178903   \n       11  | 39:45.29 |  3:08.46 |    178904    |   193049   \n\n\nRange status and errors\n\nSelected range\n\n     Filename D:Skull Fist - Head Of The Pack.wav\n\n     Peak level 97.7 %\n     Extraction speed 8.2 X\n     Range quality 99.9 %\n     Test CRC 727A41B0\n     Copy CRC 727A41B0\n     Copy OK\n\nNo errors occurred\n\n \nAccurateRip summary\n \nTrack  1  not present in database\nTrack  2  not present in database\nTrack  3  not present in database\nTrack  4  not present in database\nTrack  5  not present in database\nTrack  6  not present in database\nTrack  7  not present in database\nTrack  8  not present in database\nTrack  9  not present in database\nTrack 10  not present in database\nTrack 11  not present in database\n \nNone of the tracks are present in the AccurateRip database\n\nEnd of status report\n","torrent":{"xt":"urn:btih:166e118fb192fcd2f2d675b82db7639d34da18f9","amp;dn":"Skull+Fist+-+Head+Of+The+Pack_flac%28image%2Bcue%29+","amp;tr":["udp%3A%2F%2Ftracker.openbittorrent.com%3A80","udp%3A%2F%2Fopen.demonii.com%3A1337","udp%3A%2F%2Ftracker.coppersurfer.tk%3A6969","udp%3A%2F%2Fexodus.desync.com%3A6969"],"infoHash":"166e118fb192fcd2f2d675b82db7639d34da18f9","infoHashBuffer":{"type":"Buffer","data":[22,110,17,143,177,146,252,210,242,214,117,184,45,183,99,157,52,218,24,249]},"announce":[],"urlList":[]}}